<svg width="32" height="32" viewBox="0 0 32 32" fill="none" xmlns="http://www.w3.org/2000/svg">
  <!-- 배경 원형 -->
  <defs>
    <linearGradient id="bgGradient" x1="0%" y1="0%" x2="100%" y2="100%">
      <stop offset="0%" style="stop-color:#0f172a;stop-opacity:1" />
      <stop offset="100%" style="stop-color:#1e293b;stop-opacity:1" />
    </linearGradient>
    
    <linearGradient id="accentGradient" x1="0%" y1="0%" x2="100%" y2="100%">
      <stop offset="0%" style="stop-color:#06b6d4;stop-opacity:1" />
      <stop offset="100%" style="stop-color:#8b5cf6;stop-opacity:1" />
    </linearGradient>
    
    <filter id="glow" x="-50%" y="-50%" width="200%" height="200%">
      <feGaussianBlur stdDeviation="1" result="coloredBlur"/>
      <feMerge> 
        <feMergeNode in="coloredBlur"/>
        <feMergeNode in="SourceGraphic"/>
      </feMerge>
    </filter>
  </defs>
  
  <!-- 메인 배경 원 (맥북 아이콘 기준으로 적절한 radius) -->
  <circle cx="16" cy="16" r="14" fill="url(#bgGradient)" stroke="url(#accentGradient)" stroke-width="1.5" filter="url(#glow)"/>
  
  <!-- 중앙 음표 아이콘 -->
  <g transform="translate(16, 16)">
    <!-- 음표 머리 -->
    <circle cx="0" cy="-2" r="2.5" fill="url(#accentGradient)"/>
    
    <!-- 음표 줄기 -->
    <rect x="-0.5" y="-2" width="1" height="8" fill="url(#accentGradient)"/>
    
    <!-- 음표 꼬리 -->
    <path d="M 0.5 6 Q 3 6 3 4 Q 3 2 0.5 2" stroke="url(#accentGradient)" stroke-width="1" fill="none" stroke-linecap="round"/>
  </g>
  
  <!-- 작은 음파 효과 (미니멀하게) -->
  <g opacity="0.7">
    <rect x="8" y="24" width="1" height="4" fill="url(#accentGradient)" rx="0.5"/>
    <rect x="10" y="23" width="1" height="6" fill="url(#accentGradient)" rx="0.5"/>
    <rect x="12" y="22" width="1" height="8" fill="url(#accentGradient)" rx="0.5"/>
    <rect x="14" y="23" width="1" height="6" fill="url(#accentGradient)" rx="0.5"/>
    <rect x="16" y="24" width="1" height="4" fill="url(#accentGradient)" rx="0.5"/>
  </g>
</svg>

