<svg width="192" height="192" viewBox="0 0 192 192" fill="none" xmlns="http://www.w3.org/2000/svg">
  <!-- 배경 원형 -->
  <defs>
    <linearGradient id="bgGradient" x1="0%" y1="0%" x2="100%" y2="100%">
      <stop offset="0%" style="stop-color:#0f172a;stop-opacity:1" />
      <stop offset="100%" style="stop-color:#1e293b;stop-opacity:1" />
    </linearGradient>
    
    <linearGradient id="accentGradient" x1="0%" y1="0%" x2="100%" y2="100%">
      <stop offset="0%" style="stop-color:#06b6d4;stop-opacity:1" />
      <stop offset="100%" style="stop-color:#8b5cf6;stop-opacity:1" />
    </linearGradient>
    
    <filter id="glow" x="-50%" y="-50%" width="200%" height="200%">
      <feGaussianBlur stdDeviation="3" result="coloredBlur"/>
      <feMerge> 
        <feMergeNode in="coloredBlur"/>
        <feMergeNode in="SourceGraphic"/>
      </feMerge>
    </filter>
  </defs>
  
  <!-- 메인 배경 원 (맥북 아이콘 기준으로 적절한 radius) -->
  <circle cx="96" cy="96" r="84" fill="url(#bgGradient)" stroke="url(#accentGradient)" stroke-width="3" filter="url(#glow)"/>
  
  <!-- 중앙 음표 아이콘 -->
  <g transform="translate(96, 96)">
    <!-- 음표 머리 -->
    <circle cx="0" cy="-12" r="15" fill="url(#accentGradient)"/>
    
    <!-- 음표 줄기 -->
    <rect x="-3" y="-12" width="6" height="48" fill="url(#accentGradient)"/>
    
    <!-- 음표 꼬리 -->
    <path d="M 3 36 Q 18 36 18 24 Q 18 12 3 12" stroke="url(#accentGradient)" stroke-width="6" fill="none" stroke-linecap="round"/>
  </g>
  
  <!-- 작은 음파 효과 (미니멀하게) -->
  <g opacity="0.7">
    <rect x="48" y="144" width="6" height="24" fill="url(#accentGradient)" rx="3"/>
    <rect x="60" y="138" width="6" height="36" fill="url(#accentGradient)" rx="3"/>
    <rect x="72" y="132" width="6" height="48" fill="url(#accentGradient)" rx="3"/>
    <rect x="84" y="138" width="6" height="36" fill="url(#accentGradient)" rx="3"/>
    <rect x="96" y="144" width="6" height="24" fill="url(#accentGradient)" rx="3"/>
  </g>
</svg>

